<?xml version="1.0" encoding="UTF-8"?>
<svg width="40px" height="40px" viewBox="0 0 21 24" version="1.1" xmlns="http://www.w3.org/2000/svg" xmlns:xlink="http://www.w3.org/1999/xlink">
    <!-- Generator: Sketch 61.2 (89653) - https://sketch.com -->
    <title>数牍sudo</title>
    <desc>Created with Sketch.</desc>
    <g id="风格" stroke="none" stroke-width="1" fill="none" fill-rule="evenodd">
        <g id="项目列表-卡片式图" transform="translate(-28.000000, -16.000000)" fill="white" fill-rule="nonzero">
            <g id="数牍sudo" transform="translate(28.000000, 16.000000)">
                <g id="Layer_3_copy">
                    <path d="M20.8678474,6.07168831 C20.827297,5.97818182 20.7586733,5.89714286 20.671334,5.84727273 L15.686757,2.97038961 L15.6836377,2.96727273 L15.6805185,2.96727273 L10.6959415,0.0903896104 L10.6928222,0.0872727273 C10.546217,0.00311688312 10.3684192,-4.57966998e-16 10.221814,0.0841558442 L0.240182997,5.84103896 C0.0966970506,5.92519481 0.00623851939,6.08103896 0.00623851939,6.24935065 L0.00623851939,12.0031169 C0.00623851939,12.0031169 0.00623851939,12.0062338 0.00623851939,12.0093506 C0.00623851939,12.0124675 0.00623851939,12.0124675 0.00623851939,12.0124675 L0.00623851939,17.7662338 C0.00623851939,17.7662338 0.00623851939,17.7693506 0.00623851939,17.7693506 C0.00623851939,17.9376623 0.0966970506,18.0903896 0.240182997,18.1745455 L10.221814,23.9345455 C10.3653,24.0187013 10.546217,24.0187013 10.689703,23.9345455 C10.6990608,23.9283117 10.7115378,23.9220779 10.7208956,23.9127273 L15.67428,21.0545455 L15.6805185,21.0514286 L15.6836377,21.0483117 L20.6682147,18.1745455 L20.671334,18.1714286 C20.8148199,18.0872727 20.9052785,17.9345455 20.9052785,17.7662338 L20.9052785,6.25246753 C20.9052785,6.19012987 20.8928014,6.13090909 20.8678474,6.07168831 Z M15.914463,14.6212987 L15.914463,9.40363636 L19.9695006,7.06285714 L19.9695006,16.958961 L15.914463,14.6212987 Z M14.9786851,4.18285714 L14.9786851,8.8612987 L10.4557585,11.4701299 L6.4007209,9.13246753 L14.9786851,4.18285714 Z M4.52604582,9.13246753 L0.938897168,11.2020779 L0.938897168,7.06285714 L4.52604582,9.13246753 Z M5.46182373,9.67168831 L9.98475029,12.2805195 L9.98475029,16.958961 L1.40678612,12.0093506 L5.46182373,9.67168831 Z M9.98786955,18.0405195 L9.98786955,22.718961 L1.40990538,17.7693506 L5.46494299,15.4316883 L9.98786955,18.0405195 Z M10.9236475,12.2805195 L14.9755658,9.94285714 L14.9755658,19.838961 L10.9236475,17.5012987 L10.9236475,12.2805195 Z M15.914463,8.31896104 L15.914463,4.18285714 L19.4984924,6.25246753 L15.914463,8.31896104 Z M10.9236475,5.44207792 L10.9236475,1.30285714 L14.5107961,3.37246753 L10.9236475,5.44207792 Z M9.98786955,5.9812987 L5.46494299,8.59012987 L1.40990538,6.24935065 L9.98786955,1.30285714 L9.98786955,5.9812987 Z M0.942016428,12.8197403 L4.52916508,14.8893506 L0.942016428,16.958961 L0.942016428,12.8197403 Z M10.9236475,18.5797403 L14.5076768,20.6462338 L10.9236475,22.7127273 L10.9236475,18.5797403 Z M15.9113437,15.6997403 L19.4984924,17.7693506 L15.9113437,19.838961 L15.9113437,15.6997403 Z" id="形状"></path>
                </g>
            </g>
        </g>
    </g>
</svg>