<svg xmlns="http://www.w3.org/2000/svg" width="1em" height="1em" viewBox="0 0 24 24"><g fill="none" fill-rule="evenodd"><path d="M12 2C6.477 2 2 6.145 2 11.243c0 2.936 1.444 5.544 3.682 7.227l-.634 2.854a.5.5 0 0 0 .707.553l3.123-1.598c.986.28 2.028.43 3.107.43.443 0 .878-.03 1.303-.087a6.5 6.5 0 0 0 9.612-5.73V11.5C22 6.262 17.523 2 12 2"/><path fill="#2B7EFF" d="M12 2C6.477 2 2 6.145 2 11.243c0 2.936 1.444 5.544 3.682 7.227l-.634 2.854a.5.5 0 0 0 .707.553l3.123-1.598c.986.28 2.028.43 3.107.43.443 0 .878-.03 1.303-.087a6.5 6.5 0 0 0 9.612-5.73V11.5C22 6.262 17.523 2 12 2m0 2c4.418 0 8 3.358 8 7.5v1.4a4.5 4.5 0 0 1-6.66 3.94l-.21-.1-.213.025c-.626.075-1.268.113-1.917.113-.883 0-1.748-.124-2.567-.357l-.322-.092-2.303 1.179.47-2.115.07-.318-.248-.2C3.477 14.135 4 12.728 4 11.243 4 7.25 7.582 4 12 4"/><circle cx="8" cy="10" r="1.5" fill="#2B7EFF"/><circle cx="12" cy="10" r="1.5" fill="#2B7EFF"/><circle cx="16" cy="10" r="1.5" fill="#2B7EFF"/></g></svg>